<svg viewBox="0 0 1200 430" width="1200" height="430" font-family="IBM Plex Sans, Helvetica, Arial, sans-serif" xmlns="http://www.w3.org/2000/svg" role="img" aria-label="patinate hero: stylized heatmap posters from Strava activity. Patina builds where you ride often.">
  <rect x="0" y="0" width="1200" height="430" fill="#f4f4f4"/>
  <g font-family="IBM Plex Sans, Helvetica, Arial, sans-serif">

  <!-- top metadata row: y 0-48 -->
  <text x="60" y="34" font-size="10" font-weight="600" font-family="IBM Plex Mono, Menlo, monospace" fill="#707070" letter-spacing="1.4">PATINATE · STRAVA → POSTER · WHERE YOU RIDE OFTEN BUILDS BRIGHTER</text>
  <text x="1140" y="34" text-anchor="end" font-size="10" font-weight="600" font-family="IBM Plex Mono, Menlo, monospace" fill="#707070" letter-spacing="1.4">2026</text>
  <line x1="60" y1="48" x2="1140" y2="48" stroke="#e0e0e0" stroke-width="1"/>

  <!-- title block: y 60-200, left -->
  <text x="60" y="138" font-size="72" font-weight="700" fill="#4a6741" letter-spacing="-2">patinate</text>
  <text x="60" y="172" font-size="14" fill="#404040">render Strava activity into stylized heatmap posters</text>
  <text x="60" y="192" font-size="14" fill="#404040">where the patina builds in the streets you ride often.</text>
  <text x="60" y="222" font-size="12" font-style="italic" fill="#404040">a poster of your year, drawn by your feet.</text>

  <!-- metaphor mark: y 240-380, left. City grid + heat trail with the
       patina-buildup effect (three stacked low-alpha strokes).
       Single-color moss matches the canonical glyph palette. -->
  <g transform="translate(110 250) scale(2.2)" stroke="#4a6741" fill="none" stroke-linecap="round">
    <line x1="0"   y1="14" x2="120" y2="14" stroke-width="0.6"/>
    <line x1="0"   y1="28" x2="120" y2="28" stroke-width="0.6"/>
    <line x1="0"   y1="42" x2="120" y2="42" stroke-width="0.6"/>
    <line x1="0"   y1="56" x2="120" y2="56" stroke-width="0.6"/>
    <line x1="20"  y1="0"  x2="20"  y2="64" stroke-width="0.6"/>
    <line x1="40"  y1="0"  x2="40"  y2="64" stroke-width="0.6"/>
    <line x1="60"  y1="0"  x2="60"  y2="64" stroke-width="0.6"/>
    <line x1="80"  y1="0"  x2="80"  y2="64" stroke-width="0.6"/>
    <line x1="100" y1="0"  x2="100" y2="64" stroke-width="0.6"/>
    <line x1="0"   y1="32" x2="120" y2="32" stroke-width="1.5"/>
    <line x1="60"  y1="0"  x2="60"  y2="64" stroke-width="1.5"/>
    <path d="M 12 56 Q 30 44, 42 32 Q 60 22, 60 14 T 96 4" stroke-width="6" opacity="0.18"/>
    <path d="M 12 56 Q 30 44, 42 32 Q 60 22, 60 14 T 96 4" stroke-width="3.5" opacity="0.5"/>
    <path d="M 12 56 Q 30 44, 42 32 Q 60 22, 60 14 T 96 4" stroke-width="1.8" opacity="1"/>
    <path d="M 108 60 Q 88 46, 72 36 T 28 12" stroke-width="5" opacity="0.12"/>
    <path d="M 108 60 Q 88 46, 72 36 T 28 12" stroke-width="2.8" opacity="0.36"/>
    <path d="M 108 60 Q 88 46, 72 36 T 28 12" stroke-width="1.4" opacity="0.85"/>
    <circle cx="12" cy="56" r="2.4" fill="#4a6741" stroke="none"/>
  </g>

  <!-- column headers: y 60-90, right -->
  <text x="560" y="72" font-size="10" font-weight="700" font-family="IBM Plex Mono, Menlo, monospace" fill="#707070" letter-spacing="1.4">FLOW</text>
  <text x="850" y="72" font-size="10" font-weight="700" font-family="IBM Plex Mono, Menlo, monospace" fill="#707070" letter-spacing="1.4">DISCIPLINE</text>

  <!-- tile 1: top-left (FLOW · IN) -->
  <rect x="560" y="84" width="270" height="130" rx="3" fill="#ffffff" stroke="#e0e0e0" stroke-width="1"/>
  <text x="578" y="106" font-size="10" font-weight="700" font-family="IBM Plex Mono, Menlo, monospace" fill="#707070" letter-spacing="1.4">IN</text>
  <text x="578" y="152" font-size="32" font-weight="700" fill="#4a6741" letter-spacing="-0.5">activities</text>
  <text x="578" y="178" font-size="11" fill="#404040">Strava OAuth → polyline + segments + timestamps</text>
  <text x="578" y="200" font-size="9" font-family="IBM Plex Mono, Menlo, monospace" fill="#707070" letter-spacing="0.6">OAUTH · INCREMENTAL · CACHED</text>

  <!-- tile 2: top-right (DISCIPLINE · POSTURE) -->
  <rect x="850" y="84" width="270" height="130" rx="3" fill="#ffffff" stroke="#e0e0e0" stroke-width="1"/>
  <text x="868" y="106" font-size="10" font-weight="700" font-family="IBM Plex Mono, Menlo, monospace" fill="#707070" letter-spacing="1.4">POSTURE</text>
  <text x="868" y="152" font-size="32" font-weight="700" fill="#4a6741" letter-spacing="-0.5">private</text>
  <text x="868" y="178" font-size="11" fill="#404040">home obfuscation + segment-name strip + ID zeroing</text>
  <text x="868" y="200" font-size="9" font-family="IBM Plex Mono, Menlo, monospace" fill="#707070" letter-spacing="0.6">CIRCLE-OBFUSCATE · 1KM+ DEFAULT</text>

  <!-- tile 3: bottom-left (FLOW · OUT) -->
  <rect x="560" y="224" width="270" height="130" rx="3" fill="#ffffff" stroke="#e0e0e0" stroke-width="1"/>
  <text x="578" y="246" font-size="10" font-weight="700" font-family="IBM Plex Mono, Menlo, monospace" fill="#707070" letter-spacing="1.4">OUT</text>
  <text x="578" y="292" font-size="32" font-weight="700" fill="#4a6741" letter-spacing="-0.5">posters</text>
  <text x="578" y="318" font-size="11" fill="#404040">stylized SVG (vector) + PNG via resvg, four themes</text>
  <text x="578" y="340" font-size="9" font-family="IBM Plex Mono, Menlo, monospace" fill="#707070" letter-spacing="0.6">NOIR · BLUEPRINT · WARM-BEIGE · CYCLE</text>

  <!-- tile 4: bottom-right (DISCIPLINE · LIFETIME) -->
  <rect x="850" y="224" width="270" height="130" rx="3" fill="#ffffff" stroke="#e0e0e0" stroke-width="1"/>
  <text x="868" y="246" font-size="10" font-weight="700" font-family="IBM Plex Mono, Menlo, monospace" fill="#707070" letter-spacing="1.4">LIFETIME</text>
  <text x="868" y="292" font-size="32" font-weight="700" fill="#4a6741" letter-spacing="-0.5">local</text>
  <text x="868" y="318" font-size="11" fill="#404040">your laptop, your activities, your map — no server</text>
  <text x="868" y="340" font-size="9" font-family="IBM Plex Mono, Menlo, monospace" fill="#707070" letter-spacing="0.6">ONE OPERATOR · NO TELEMETRY</text>

  <!-- bottom metadata row -->
  <line x1="60" y1="386" x2="1140" y2="386" stroke="#e0e0e0" stroke-width="1"/>
  <text x="60" y="412" font-size="10" font-weight="600" font-family="IBM Plex Mono, Menlo, monospace" fill="#707070" letter-spacing="1.4">RUST · CLI · STRAVA · OSM · SVG/PNG · COSIGN</text>
  <text x="1140" y="412" text-anchor="end" font-size="10" font-weight="600" font-family="IBM Plex Mono, Menlo, monospace" fill="#707070" letter-spacing="1.4">MIT · GITLAB.COM/DUNN.DEV/PATINATE</text>
  </g>
</svg>
